<svg xmlns="http://www.w3.org/2000/svg" viewBox="0 0 143.6 137.1" xmlns:v="https://vecta.io/nano"><path d="M105.8 41.4H41.3a12.04 12.04 0 0 0-12 12v39.3c0 6.6 20.9 37.2 27.5 37.2h49a12.04 12.04 0 0 0 12-12V53.4a12.04 12.04 0 0 0-12-12z" fill="#f7e000"/><g fill="#9356dc"><path d="M48.6 46.8l-7.4-38c-.2-.8-.9-1.5-1.8-1.5H39c-1 0-1.8.7-1.8 1.7l-2.1 35h-5.2L26.4 8.9c-.1-.9-.9-1.6-1.8-1.6h0c-.9 0-1.7.7-1.8 1.6L19.2 44H14L12 9c-.1-.9-.8-1.7-1.8-1.7h-.7a1.83 1.83 0 0 0-1.8 1.4L0 46.8c0 10.4 8 18.9 18.1 19.8v57.7c0 3.4 2.6 6.3 6 6.4 3.5.1 6.4-2.7 6.4-6.2v-58c10.2-.8 18.1-9.3 18.1-19.7z"/><circle cx="76.4" cy="80" r="32.8"/><path d="M76.4 27.2c-28.9 0-52.2 23.4-52.2 52.2 0 28.9 23.4 52.2 52.2 52.2s52.2-23.4 52.2-52.2-23.4-52.2-52.2-52.2zm0 90.8c-21.5 0-38.9-17.4-38.9-38.9s17.4-38.9 38.9-38.9 38.9 17.4 38.9 38.9S97.9 118 76.4 118z"/></g><path d="M58.7 10.7L56 45.6l62.2 19.3c0-.1.1-.1.1-.2l17.1-30.2c6.9 1.7 10.7-4.5 6.2-8.7-4.8-4.2-12.4-1.1-10.4 5.2-27 8.6-22.1 6.7-28.1-16.3 9-2.9 2.7-13.2-4.9-10.5-3.1 1.1-4.7 4.4-1.6 8.5-18 15.6-15 19.9-32.4-2.5 5-3.8 1-10.7-5.4-10.2-6.4.7-6.9 8.1-.1 10.7z" fill="#f5df12"/><path d="M97 90.6l5-28.7-5.7-.9-5.2 29.5H79.3V60.1h-5.7v30.4h-12L56.5 61l-5.7.9 4.9 28.6c-.3.1-.6.2-.9.2H44c-.8 0-1.1-.2-1.4-1l-9.9-27.4c-3.4-9.8 3.5-20.6 13.9-21.5 4.6-.4 7.4.3 12 3C63.3 38.2 69 35 76.4 35s13.1 3.3 17.7 8.5c2.4-.9 4.6-2.1 7-2.6 11.3-2.3 21.7 7.2 19.5 19-.9 4.6-2.9 9-4.5 13.5l-5.7 15.9c-.4 1.1-.9 1.4-2 1.4-3.8-.2-7.5-.1-11.4-.1zm12.8 5.8v17a10.5 10.5 0 0 1-10.5 10.5H53.7a10.5 10.5 0 0 1-10.5-10.5v-17h66.6z" fill="#eff0f4"/><path d="M142.1 128.7h0c0-14-19.3-29.3-33.3-29.3H90.1c-11 0-19.9 8.9-20 19.8H24.8c-3.4 0-6.2 2.8-6.2 6.2s2.8 6.2 6.2 6.2h45.3H90h45.2c3.8 0 6.9.9 6.9-2.9z" fill="#9356dc"/></svg>